{"title":"My.Big.Fat.Greek.Wedding.2.2016.HD-TS.XVID.AC3.HQ.Hive-CM8","uid":14256873,"size":1267575421,"categoryP":"video","categoryS":"movies","magnet":"?xt=urn:btih:c754bcd38fbc88fabf19e4537eafe9cc11c88542&amp;dn=My.Big.Fat.Greek.Wedding.2.2016.HD-TS.XVID.AC3.HQ.Hive-CM8&amp;tr=udp%3A%2F%2Ftracker.leechers-paradise.org%3A6969&amp;tr=udp%3A%2F%2Fzer0day.ch%3A1337&amp;tr=udp%3A%2F%2Fopen.demonii.com%3A1337&amp;tr=udp%3A%2F%2Ftracker.coppersurfer.tk%3A6969&amp;tr=udp%3A%2F%2Fexodus.desync.com%3A6969","seeders":13,"leechers":1,"uploader":"xxxlavalxxx","files":4,"time":1460197527,"description":"http://extraimago.com/image/aSzm\r\n \nhttp://www.imdb.com/title/tt3760922/\r\n\r\n\r\nA Portokalos family secret brings the beloved characters back together for an even bigger and Greeker wedding.\r\n\r\nDirector: Kirk Jones\r\nWriter: Nia Vardalos\r\nStars: Nia Vardalos, John Corbett, Michael Constantine\r\nGenres: Comedy | Romance\r\nCountry: USA | Canada\r\nLanguage: English\r\n\r\n\r\nMy.Big.Fat.Greek.Wedding.2.2016.HD-TS.XVID.AC3.HQ.Hive-CM8\r\n\r\nThx Hive\r\n\r\nCM8 Doing It Right The First Time \r\n\r\nSources:\r\n\r\nVideo: Latino DVD-R\r\nAudio: Exclusive-cpg/Thor Line\r\nthx\r\n\r\n\r\nNotes:\r\nWaited for the source-dvd, this one doesnt have the framerate problems(30 frames) and videoquality is a lot nicer.\r\n\r\nAnother perfect release, best possible Video and best possible Line combined for this blockbuster.\r\nOne good release is the way to go, patience\r\nthx for everyone involved\r\n\r\n\r\nEncode:\r\nVideoquality was very nice already, added sharpness,brightness,contrast,fixed rgb and removed the flicker.\r\n\r\nLine Audio was nice, just had a lot of oos spots, needed 40 cuts, now all is lipsync as usually :=)\r\n\r\ngot very nice and will do me till retail\r\nenjoy\r\n\r\n\r\nVideo: 720x352 @bitrate 1600 2pass\r\nAudio: Line AC3 2.0 Stereo\r\nSample: yes included\r\n\r\n\r\n \nhttp://www.imdb.com/title/tt3760922/\r\n\r\n\r\nGeneral\r\nComplete name                  : My.Big.Fat.Greek.Wedding.2.2016.HD-TS.XVID.AC3.HQ.Hive-CM8.avi\r\nFormat                         : AVI\r\nFormat/Info                    : Audio Video Interleave\r\nFile size                      : 1.17 GiB\r\nDuration                       : 1h 29mn\r\nOverall bit rate               : 1 868 Kbps\r\nWriting application            : Nandub v1.0rc2\r\nWriting library                : Nandub build 1853/release\r\n\r\nVideo\r\nID                             : 0\r\nFormat                         : MPEG-4 Visual\r\nFormat profile                 : Advanced   \r\nFormat settings, BVOP          : 2\r\nFormat settings, QPel          : Yes\r\nFormat settings, GMC           : No warppoints\r\nFormat settings, Matrix        : Default (H.263)\r\nMuxing mode                    : Packed bitstream\r\nCodec ID                       : XVID\r\nCodec ID/Hint                  : XviD\r\nDuration                       : 1h 29mn\r\nBit rate                       : 1 600 Kbps\r\nWidth                          : 720 pixels\r\nHeight                         : 352 pixels\r\nDisplay aspect ratio           : 2.045\r\nFrame rate                     : 29.970 fps\r\nColor space                    : YUV\r\nChroma subsampling             : 4:2:0\r\nBit depth                      : 8 bits\r\nScan type                      : Progressive\r\nCompression mode               : Lossy\r\nBits/(Pixel*Frame)             : 0.211\r\nStream size                    : 1.00 GiB (86%)\r\nWriting library                : XviD 1.2.1 (UTC 2008-12-04)\r\n\r\nAudio\r\nID                             : 1\r\nFormat                         : AC-3\r\nFormat/Info                    : Audio Coding 3\r\nMode extension                 : CM (complete main)\r\nFormat settings, Endianness    : Big\r\nCodec ID                       : 2000\r\nDuration                       : 1h 29mn\r\nBit rate mode                  : Constant\r\nBit rate                       : 256 Kbps\r\nChannel(s)                     : 2 channels\r\nChannel positions              : Front: L R\r\nSampling rate                  : 48.0 KHz\r\nBit depth                      : 16 bits\r\nCompression mode               : Lossy\r\nStream size                    : 164 MiB (14%)\r\nAlignment                      : Split accross interleaves\r\nInterleave, duration           : 33 ms (1.00 video frame)\r\nInterleave, preload duration   : 500 ms\r\n\r\n \nhttp://extraimago.com/image/aqTD \nhttp://extraimago.com/image/aqTF \nhttp://extraimago.com/image/aqTH \nhttp://extraimago.com/image/aqTk \nhttp://extraimago.com/image/aqTo \nhttp://extraimago.com/image/aqTt \nhttp://extraimago.com/image/aqTx \nhttp://extraimago.com/image/aqT6","torrent":{"xt":"urn:btih:c754bcd38fbc88fabf19e4537eafe9cc11c88542","amp;dn":"My.Big.Fat.Greek.Wedding.2.2016.HD-TS.XVID.AC3.HQ.Hive-CM8","amp;tr":["udp%3A%2F%2Ftracker.leechers-paradise.org%3A6969","udp%3A%2F%2Fzer0day.ch%3A1337","udp%3A%2F%2Fopen.demonii.com%3A1337","udp%3A%2F%2Ftracker.coppersurfer.tk%3A6969","udp%3A%2F%2Fexodus.desync.com%3A6969"],"infoHash":"c754bcd38fbc88fabf19e4537eafe9cc11c88542","infoHashBuffer":{"type":"Buffer","data":[199,84,188,211,143,188,136,250,191,25,228,83,126,175,233,204,17,200,133,66]},"announce":[],"urlList":[]}}